<svg width="829" height="588" viewBox="0 0 829 588" fill="none" xmlns="http://www.w3.org/2000/svg">
<g opacity="0.75">
<path d="M291.869 170.67H332.582M297.685 190.057H332.582M297.685 242.403H324.827M297.685 259.851H324.827" stroke="#EEE3D4" stroke-width="3.87744"/>
<path d="M-213 658.026C-54.6714 563.028 375.207 430.032 828.092 658.026" stroke="#EEE3D4" stroke-width="3.87744"/>
<path d="M-213 696.801C-54.6714 601.804 375.207 468.808 828.092 696.801" stroke="#EEE3D4" stroke-width="3.87744"/>
<path d="M113.509 698C206.567 592.017 356.624 304.44 212.383 2" stroke="#EEE3D4" stroke-width="3.87744"/>
<path d="M210.443 2H239.524M384.928 2H410.131" stroke="#EEE3D4" stroke-width="3.87744"/>
<path d="M140.648 696.061C233.857 590.373 384.157 303.598 239.683 2" stroke="#EEE3D4" stroke-width="3.87744"/>
<path d="M508.748 698C415.69 592.017 265.633 304.44 409.873 2" stroke="#EEE3D4" stroke-width="3.87744"/>
<path d="M485.481 698C392.422 592.017 242.365 304.44 386.606 2" stroke="#EEE3D4" stroke-width="3.87744"/>
</g>
</svg>
