<svg width="41" height="40" viewBox="0 0 41 40" fill="none" xmlns="http://www.w3.org/2000/svg">
<g clip-path="url(#clip0_13455_15769)">
<path d="M35.5 10.8333C34.814 10.833 34.1353 10.9739 33.5061 11.2475C32.877 11.521 32.311 11.9213 31.8434 12.4233C31.3759 12.9253 31.0167 13.5182 30.7885 14.1651C30.5602 14.812 30.4677 15.4991 30.5167 16.1833L27.1333 17.3167C26.5971 16.3023 25.8338 15.4255 24.9029 14.7548C23.972 14.084 22.8986 13.6375 21.7667 13.45V9.85C22.8358 9.56476 23.781 8.93497 24.4559 8.05817C25.1308 7.18137 25.4978 6.10648 25.5 5C25.5 2.23333 23.2667 0 20.5 0C17.7333 0 15.5 2.23333 15.5 5C15.5 7.33333 17.1 9.28333 19.25 9.85V13.45C16.9167 13.8333 14.95 15.3 13.8833 17.3167L10.4833 16.1833C10.5 16.0667 10.5 15.95 10.5 15.8333C10.5 13.0667 8.26667 10.8333 5.5 10.8333C2.73333 10.8333 0.5 13.0667 0.5 15.8333C0.5 18.6 2.73333 20.8333 5.5 20.8333C7.26667 20.8333 8.8 19.9167 9.7 18.55L13.0833 19.6833C12.75 21.8333 13.3667 24.1167 14.9 25.8333L12.55 28.7833C11.9167 28.4833 11.2333 28.3333 10.5 28.3333C7.73333 28.3333 5.5 30.5667 5.5 33.3333C5.5 36.1 7.73333 38.3333 10.5 38.3333C13.2667 38.3333 15.5 36.1 15.5 33.3333C15.5 32.2 15.1333 31.1667 14.5 30.3333L16.85 27.3833C19.1167 28.65 21.8833 28.6333 24.1333 27.3833L26.4833 30.3333C25.8667 31.1667 25.5 32.2 25.5 33.3333C25.5 36.1 27.7333 38.3333 30.5 38.3333C33.2667 38.3333 35.5 36.1 35.5 33.3333C35.5 30.5667 33.2667 28.3333 30.5 28.3333C29.7667 28.3333 29.0833 28.4833 28.45 28.7667L26.1 25.8167C26.8396 24.9902 27.3863 24.0097 27.7005 22.9461C28.0147 21.8825 28.0885 20.7623 27.9167 19.6667L31.3 18.5333C32.1833 19.9 33.7333 20.8167 35.5 20.8167C38.2667 20.8167 40.5 18.5833 40.5 15.8167C40.5 13.05 38.2667 10.8333 35.5 10.8333ZM5.5 17.5C4.58333 17.5 3.83333 16.75 3.83333 15.8333C3.83333 14.9167 4.58333 14.1667 5.5 14.1667C6.41667 14.1667 7.16667 14.9167 7.16667 15.8333C7.16667 16.75 6.41667 17.5 5.5 17.5ZM10.5 35C9.58333 35 8.83333 34.25 8.83333 33.3333C8.83333 32.4167 9.58333 31.6667 10.5 31.6667C11.4167 31.6667 12.1667 32.4167 12.1667 33.3333C12.1667 34.25 11.4167 35 10.5 35ZM18.8333 5C18.8333 4.08333 19.5833 3.33333 20.5 3.33333C21.4167 3.33333 22.1667 4.08333 22.1667 5C22.1667 5.91667 21.4167 6.66667 20.5 6.66667C19.5833 6.66667 18.8333 5.91667 18.8333 5ZM20.5 25C19.3949 25 18.3351 24.561 17.5537 23.7796C16.7723 22.9982 16.3333 21.9384 16.3333 20.8333C16.3333 19.7283 16.7723 18.6685 17.5537 17.8871C18.3351 17.1057 19.3949 16.6667 20.5 16.6667C21.6051 16.6667 22.6649 17.1057 23.4463 17.8871C24.2277 18.6685 24.6667 19.7283 24.6667 20.8333C24.6667 21.9384 24.2277 22.9982 23.4463 23.7796C22.6649 24.561 21.6051 25 20.5 25ZM30.5 31.6667C31.4167 31.6667 32.1667 32.4167 32.1667 33.3333C32.1667 34.25 31.4167 35 30.5 35C29.5833 35 28.8333 34.25 28.8333 33.3333C28.8333 32.4167 29.5833 31.6667 30.5 31.6667ZM35.5 17.5C34.5833 17.5 33.8333 16.75 33.8333 15.8333C33.8333 14.9167 34.5833 14.1667 35.5 14.1667C36.4167 14.1667 37.1667 14.9167 37.1667 15.8333C37.1667 16.75 36.4167 17.5 35.5 17.5Z" fill="#291B0A"/>
</g>
<defs>
<clipPath id="clip0_13455_15769">
<rect width="40" height="40" fill="white" transform="translate(0.5)"/>
</clipPath>
</defs>
</svg>
