<svg width="37" height="40" viewBox="0 0 37 40" fill="none" xmlns="http://www.w3.org/2000/svg">
<path d="M18.5 38.5706C28.5 38.5706 35.6429 35.0335 35.6429 27.1592C35.6429 18.602 31.3571 12.8963 22.7857 8.61631L26.1571 4.27916C26.3289 3.99467 26.4221 3.66975 26.4273 3.33749C26.4326 3.00524 26.3497 2.67753 26.1871 2.38774C26.0245 2.09794 25.788 1.85643 25.5017 1.68779C25.2153 1.51916 24.8894 1.42942 24.5571 1.42773H12.4429C12.1113 1.43118 11.7865 1.52201 11.5012 1.69105C11.2159 1.8601 10.9802 2.10139 10.818 2.39058C10.6557 2.67977 10.5725 3.00663 10.5769 3.33821C10.5813 3.66979 10.673 3.99435 10.8429 4.27916L14.2143 8.64488C5.64286 12.9535 1.35715 18.6592 1.35715 27.2163C1.35715 35.0335 8.5 38.5706 18.5 38.5706Z" stroke="#291B0A" stroke-width="1.71429" stroke-linecap="round" stroke-linejoin="round"/>
<path d="M22.4514 19.4452C22.2385 18.8409 21.8432 18.3177 21.3202 17.9476C20.7971 17.5776 20.1721 17.3791 19.5314 17.3794H17.1372C16.4549 17.3781 15.7964 17.6292 15.2882 18.0844C14.7801 18.5396 14.4583 19.1667 14.3849 19.8449C14.3114 20.5232 14.4915 21.2046 14.8905 21.758C15.2894 22.3114 15.879 22.6976 16.5457 22.8423L20.1943 23.6423C20.9377 23.8081 21.594 24.2421 22.0377 24.8612C22.4814 25.4804 22.6813 26.2414 22.5993 26.9987C22.5172 27.756 22.159 28.4565 21.5931 28.9663C21.0271 29.4761 20.2932 29.7595 19.5314 29.7623H17.4714C16.1229 29.7623 14.9772 28.8994 14.5514 27.6994M18.5 17.3794V14.2852M18.5 32.8566V29.7623" stroke="#291B0A" stroke-width="1.71429" stroke-linecap="round" stroke-linejoin="round"/>
</svg>
