<svg width="43" height="43" viewBox="0 0 43 43" fill="none" xmlns="http://www.w3.org/2000/svg">
<path d="M37.5805 27.0424L34.8789 24.3408C34.8105 24.2724 34.8343 24.1579 34.9218 24.1198C35.8759 23.7079 36.7679 23.1768 37.5805 22.5487C37.8715 22.3229 38.1514 22.086 38.4201 21.8363C39.204 21.1081 39.8925 20.2796 40.465 19.3701C40.4666 19.3669 40.4682 19.3653 40.4698 19.3621C40.8164 18.8103 41.1217 18.2283 41.3793 17.6225C42.001 16.1596 42.3477 14.552 42.3541 12.8632C42.3541 12.8632 42.3541 12.8617 42.3541 12.8601C42.3541 12.8442 42.3541 12.8283 42.3541 12.8124C42.3541 11.1252 42.0154 9.51921 41.4016 8.0547C41.1964 7.56335 40.9595 7.0879 40.694 6.63154C40.694 6.62836 40.6908 6.62677 40.6908 6.62517C39.4966 4.57391 37.7268 2.90109 35.604 1.82458C35.596 1.81981 35.5865 1.81504 35.5785 1.81186C33.9359 0.983399 31.1596 0.512721 29.1973 0.5C29.1703 0.5 30.0687 0.5 30.0417 0.5C30.0147 0.5 29.9892 0.5 29.9622 0.5H4.02878C2.00295 0.5 0.360352 2.1426 0.360352 4.16843V30.326C0.360352 31.1736 0.446219 32.002 0.610002 32.8019C0.610002 32.8035 0.610002 32.805 0.610002 32.8082C0.915306 34.2998 1.49093 35.6943 2.28282 36.9362C2.28282 36.9394 2.286 36.941 2.28759 36.9442C3.61375 39.0225 5.54735 40.6762 7.83714 41.6541C7.84509 41.6573 7.85304 41.6605 7.86099 41.6637C7.87848 41.6716 7.89756 41.6796 7.91505 41.6875C9.09334 42.182 10.3639 42.4969 11.6948 42.6018C12.0176 42.6273 12.342 42.64 12.6711 42.64C14.3694 42.64 15.9865 42.2965 17.4574 41.6748C18.4958 41.2359 19.4626 40.6587 20.334 39.9654C20.3355 39.9654 20.3371 39.9638 20.3387 39.9622C20.3546 39.9495 20.3721 39.9368 20.388 39.9225C20.3928 39.9193 20.3976 39.9145 20.4023 39.9113C21.5297 39.0002 22.4934 37.8951 23.2407 36.6452C24.2997 34.8754 24.9278 32.8194 24.9787 30.6202V30.6154C24.9803 30.52 24.9819 30.4246 24.9819 30.3292C24.9819 30.2338 24.9819 30.1384 24.9787 30.043V25.6463C24.9787 25.4571 25.2077 25.3617 25.3413 25.4952L36.4913 36.6452L39.1007 39.2546C40.3044 40.4583 42.3604 39.606 42.3604 37.9046V33.193C42.3604 32.3217 42.0138 31.4852 41.3968 30.8683L37.5741 27.0456L37.5805 27.0424ZM30.0369 17.6225H18.2922C17.8327 17.6225 17.459 17.9946 17.459 18.4557V30.4294V30.431C17.3079 33.7893 13.9289 35.9646 10.8266 34.6655C9.15058 33.9643 8.01682 32.3471 7.91505 30.5169V8.78934C7.91505 8.38863 8.24103 8.06265 8.64174 8.06265L18.6818 8.05629C18.6818 8.05629 18.6818 8.05947 18.6802 8.06106C20.7871 8.06106 22.9624 8.06106 24.9819 8.06106C26.8678 8.06106 28.6185 8.06106 30.0496 8.06424C32.64 8.06742 34.7771 10.2236 34.7866 12.806C34.7962 15.4536 32.6956 17.5859 30.0369 17.6241V17.6225Z" fill="#A0A824"/>
</svg>
