<svg width="106" height="109" viewBox="0 0 106 109" fill="none" xmlns="http://www.w3.org/2000/svg">
<g filter="url(#filter0_d_13640_15427)">
<rect x="16" y="8" width="71" height="71" rx="11.36" fill="white"/>
<path d="M65.1892 47.6629L62.9588 45.4325C62.9023 45.3761 62.922 45.2815 62.9942 45.25C63.7819 44.91 64.5184 44.4716 65.1892 43.953C65.4294 43.7666 65.6605 43.571 65.8823 43.3649C66.5295 42.7636 67.098 42.0797 67.5706 41.3288C67.5719 41.3261 67.5732 41.3248 67.5745 41.3222C67.8607 40.8667 68.1128 40.3862 68.3254 39.886C68.8387 38.6783 69.1249 37.351 69.1302 35.9569C69.1302 35.9569 69.1302 35.9556 69.1302 35.9542C69.1302 35.9411 69.1302 35.928 69.1302 35.9149C69.1302 34.522 68.8505 33.1961 68.3438 31.987C68.1745 31.5814 67.9789 31.1889 67.7596 30.8121C67.7596 30.8095 67.757 30.8081 67.757 30.8068C66.7711 29.1133 65.31 27.7323 63.5574 26.8435C63.5508 26.8396 63.543 26.8357 63.5364 26.833C62.1803 26.1491 59.8882 25.7605 58.2682 25.75C58.2459 25.75 58.9876 25.75 58.9653 25.75C58.943 25.75 58.922 25.75 58.8997 25.75H37.4895C35.817 25.75 34.4609 27.1061 34.4609 28.7786V50.3738C34.4609 51.0735 34.5318 51.7575 34.667 52.4178C34.667 52.4191 34.667 52.4205 34.667 52.4231C34.9191 53.6545 35.3943 54.8058 36.0481 55.8311C36.0481 55.8337 36.0507 55.835 36.052 55.8376C37.1469 57.5534 38.7432 58.9187 40.6336 59.7261C40.6402 59.7287 40.6468 59.7313 40.6533 59.734C40.6678 59.7405 40.6835 59.7471 40.698 59.7536C41.6707 60.1619 42.7196 60.4218 43.8184 60.5085C44.0849 60.5295 44.3527 60.54 44.6245 60.54C46.0265 60.54 47.3616 60.2564 48.576 59.7431C49.4332 59.3808 50.2314 58.9043 50.9508 58.3319C50.9521 58.3319 50.9534 58.3306 50.9547 58.3293C50.9678 58.3188 50.9823 58.3083 50.9954 58.2965C50.9993 58.2938 51.0033 58.2899 51.0072 58.2873C51.938 57.535 52.7335 56.6227 53.3505 55.5908C54.2248 54.1297 54.7434 52.4323 54.7854 50.6167V50.6128C54.7867 50.534 54.788 50.4552 54.788 50.3765C54.788 50.2977 54.788 50.2189 54.7854 50.1402V46.5103C54.7854 46.3541 54.9744 46.2753 55.0847 46.3856L64.2899 55.5908L66.4442 57.7451C67.438 58.7389 69.1354 58.0352 69.1354 56.6305V52.7408C69.1354 52.0214 68.8492 51.3308 68.3399 50.8215L65.1839 47.6656L65.1892 47.6629ZM58.9614 39.886H49.2652C48.8858 39.886 48.5773 40.1932 48.5773 40.5739V50.4592V50.4605C48.4526 53.2331 45.6629 55.0289 43.1017 53.9564C41.718 53.3775 40.782 52.0424 40.698 50.5314V32.5935C40.698 32.2627 40.9671 31.9936 41.2979 31.9936L49.5868 31.9883C49.5868 31.9883 49.5868 31.991 49.5855 31.9923C51.3249 31.9923 53.1208 31.9923 54.788 31.9923C56.345 31.9923 57.7904 31.9923 58.9719 31.9949C61.1104 31.9975 62.8748 33.7777 62.8826 35.9096C62.8905 38.0954 61.1563 39.8558 58.9614 39.8873V39.886Z" fill="#A0A824"/>
</g>
<defs>
<filter id="filter0_d_13640_15427" x="-2.46" y="0.9" width="107.92" height="107.92" filterUnits="userSpaceOnUse" color-interpolation-filters="sRGB">
<feFlood flood-opacity="0" result="BackgroundImageFix"/>
<feColorMatrix in="SourceAlpha" type="matrix" values="0 0 0 0 0 0 0 0 0 0 0 0 0 0 0 0 0 0 127 0" result="hardAlpha"/>
<feMorphology radius="1.42" operator="dilate" in="SourceAlpha" result="effect1_dropShadow_13640_15427"/>
<feOffset dy="11.36"/>
<feGaussianBlur stdDeviation="8.52"/>
<feComposite in2="hardAlpha" operator="out"/>
<feColorMatrix type="matrix" values="0 0 0 0 0.979145 0 0 0 0 0.0113679 0 0 0 0 0.0113679 0 0 0 0.02 0"/>
<feBlend mode="normal" in2="BackgroundImageFix" result="effect1_dropShadow_13640_15427"/>
<feBlend mode="normal" in="SourceGraphic" in2="effect1_dropShadow_13640_15427" result="shape"/>
</filter>
</defs>
</svg>
