<svg width="32" height="32" viewBox="0 0 32 32" fill="none" xmlns="http://www.w3.org/2000/svg">
<rect width="32" height="32" rx="8" fill="#FEFEFD"/>
<path d="M16 5.5C13.8128 5.50258 11.7158 6.3726 10.1692 7.91922C8.62261 9.46584 7.75259 11.5628 7.75001 13.75C7.74799 15.5373 8.33179 17.276 9.41201 18.7C9.41201 18.7 9.63701 18.9963 9.67376 19.039L16 26.5L22.3293 19.0353C22.3623 18.9955 22.588 18.7 22.588 18.7L22.5888 18.6978C23.6682 17.2743 24.2517 15.5365 24.25 13.75C24.2474 11.5628 23.3774 9.46584 21.8308 7.91922C20.2842 6.3726 18.1872 5.50258 16 5.5ZM16 16.75C15.4067 16.75 14.8266 16.5741 14.3333 16.2444C13.8399 15.9148 13.4554 15.4462 13.2284 14.8981C13.0013 14.3499 12.9419 13.7467 13.0576 13.1647C13.1734 12.5828 13.4591 12.0482 13.8787 11.6287C14.2982 11.2091 14.8328 10.9234 15.4147 10.8076C15.9967 10.6919 16.5999 10.7513 17.1481 10.9784C17.6962 11.2054 18.1648 11.5899 18.4944 12.0833C18.8241 12.5766 19 13.1567 19 13.75C18.999 14.5453 18.6826 15.3078 18.1202 15.8702C17.5578 16.4326 16.7953 16.749 16 16.75Z" fill="#5D421F"/>
</svg>
