<svg width="32" height="32" viewBox="0 0 32 32" fill="none" xmlns="http://www.w3.org/2000/svg">
<rect width="32" height="32" rx="8" fill="#FEFEFD"/>
<path d="M11 22V11.052C10.9999 10.8193 11.0771 10.5932 11.2195 10.4092C11.3619 10.2252 11.5614 10.0936 11.7866 10.0353C12.0118 9.97689 12.2501 9.99499 12.4639 10.0867C12.6777 10.1784 12.8551 10.3386 12.968 10.542L19.032 21.458C19.1449 21.6614 19.3223 21.8216 19.5361 21.9133C19.7499 22.005 19.9882 22.0231 20.2134 21.9647C20.4386 21.9064 20.6381 21.7748 20.7805 21.5908C20.9229 21.4068 21.0001 21.1807 21 20.948V10M9 14H23M9 18H23" stroke="#5D421F" stroke-width="2" stroke-linecap="round" stroke-linejoin="round"/>
</svg>
